<svg xmlns="http://www.w3.org/2000/svg" width="524" height="592" viewBox="0 0 524 592">
  <metadata><?xpacket begin="﻿" id="W5M0MpCehiHzreSzNTczkc9d"?>
<x:xmpmeta xmlns:x="adobe:ns:meta/" x:xmptk="Adobe XMP Core 5.6-c142 79.160924, 2017/07/13-01:06:39        ">
   <rdf:RDF xmlns:rdf="http://www.w3.org/1999/02/22-rdf-syntax-ns#">
      <rdf:Description rdf:about=""/>
   </rdf:RDF>
</x:xmpmeta>
                                                                                                    
                                                                                                    
                                                                                                    
                                                                                                    
                                                                                                    
                                                                                                    
                                                                                                    
                                                                                                    
                                                                                                    
                                                                                                    
                                                                                                    
                                                                                                    
                                                                                                    
                                                                                                    
                                                                                                    
                                                                                                    
                                                                                                    
                                                                                                    
                                                                                                    
                                                                                                    
                           
<?xpacket end="w"?></metadata>
<defs>
    <style>
      .cls-1 {
        fill: #e7e7e7;
        fill-rule: evenodd;
      }
    </style>
  </defs>
  <path class="cls-1" d="M872.7,692.061c-0.171,18.36-4.053,37.769-1.115,51.248v20.054c1.737,6.775,6.654,12.775,8.919,18.939,5.771,15.7,9.414,49.974,3.345,67.96h-1.115V832.436c4.416-6.988-.516-33.531-2.23-40.107-2.9-11.124-8.524-19.328-11.149-30.08-1.685-6.9-.784-17.895,0-22.282,1.778-9.947-3.6-17.7-1.114-28.967a87.651,87.651,0,0,0,2.229-20.053c-14.683-.256-21.573-6.429-30.1-12.255v1.114c5.9,8.969,1.354,30.929-1.115,38.993-7.133,23.3-11.181,50.809-23.412,69.074-3.182,4.75-8.921,8.482-12.264,13.369h2.23l20.068-5.571c7.168-3.026,13.605-10.481,21.183-12.255,1.142,5.18,3.888,7.434,5.574,11.141,7.609,16.736,15.02,36.04,15.609,57.933h-1.115v-1.114c-2.325-3.944-.569-9.395-2.23-14.483-3.293-10.088-13.784-46.43-21.183-50.134-4.643,8.78-38.68,18.065-51.285,20.053v-2.228c27.966-8.794,40.926-67.216,47.94-99.154,3.627-16.512-6.566-49.771-15.608-52.362-8.88,5.435-31.594,2.813-43.481,5.57-15.733,3.65-32.511,8.655-44.6,16.712-46.061,30.7-67.4,98.466-88.076,154.858-6,16.363-6.827,32.349-13.379,46.792h-1.115v-1.114H633v-1.114c8.792-10.334,7.853-27.512,12.264-42.336,1.02-3.429,4.266-7.972,5.574-11.141,3.77-9.133,4.054-17.9,7.805-26.738,20.654-48.676,41.084-103.9,86.961-127.006,22.092-11.125,52.127-11.311,80.273-16.711V647.5c-4.223-4.984-4.088-12.11-6.69-18.939-5.254-13.793-12.906-29.366-17.838-44.564-2.551-7.861-3.578-31.152-8.919-34.537-9.362-6.069-27.107-2.143-31.217-13.369-3.938-5.114-5.647-34.306-7.8-43.449-1.218-5.16,1.384-8.585,2.229-12.255,3.088-1.368,6.225-4.641,8.919-5.571,6.962-2.4,17.589,2.137,21.183-3.342-1.912-2.248-5.705-36.033-5.574-41.221,0.229-9.084-5.419-22.408-3.345-32.309,9.346-44.616,21.461-68.7,54.63-89.127,19.335-11.909,42.443-13.825,68.009-20.054l24.527-1.114c10.047-2.151,28.084-4.091,39.022-1.114,18.527,5.044,35.927,11.971,52.4,18.939,9.02,3.816,19.02,4.769,26.76,10.027,2.66,1.812,3.58,5.165,5.57,7.8,6.84,9.039,18.17,16.4,24.53,25.624,2.25,3.271,2.33,6.654,4.46,10.027,7.57,12.008,15.07,13.777,20.07,31.194q0.555,11.141,1.11,22.282c0,9.89,1.41,21.858-1.11,30.081-4.41,14.379-14.1,27.325-18.96,42.335,6.91,4.838,8.33,17.337,4.46,26.738-3.67,8.908-10.51,14.1-15.61,21.168-8.66,12.027-15.43,24.271-23.41,36.765-2.76,4.314-15.14,13.444-11.15,20.054,6.37,7.719,17.2,11.979,23.41,20.053,13,16.894,25.58,31.219,47.95,38.993,11.44,3.98,51.74,10.04,53.51,16.712h-1.11c-11.72-7.275-31.07-7.5-45.72-12.255-7.03-2.283-14.49-5.9-22.29-7.8V647.5c6.97,7.641,5.43,17.112,8.92,28.967,2.84,9.691,8.86,20.259,13.37,30.08a214.013,214.013,0,0,0,16.73,30.081c8.38,12.12,23.76,20.327,28.99,35.65h-1.12c-3.75,3.51-9.04,3.576-14.49,5.571-6.24,2.28-16.19,8.5-25.65,6.684-16.53-3.168-44.4-16.644-54.63-26.738-1.95.7-1.08,0.215-2.23,1.114-3.63,4.255-3.17,11.049-5.57,16.712-5.53,13.052-19.11,25.055-33.45,28.966v-7.8c4.06-6.234-.61-30.045-1.11-37.879h-2.23c-17.782,31-44.368,55.688-60.206,88.014h-2.23v-2.229c6.265-6.683,9.279-15.585,14.494-23.4,7.741-11.592,19.472-21.215,26.758-33.422q1.671-5.013,3.344-10.027c1.448-2.111,5.11-2.55,6.69-4.456,2.46-2.968,2.23-6.625,4.46-10.027,3.28-5.007,10.08-8.516,13.38-13.369,3.33-4.918,14.47-28.148,15.61-33.423,0.79-3.675-2.5-11.842-3.35-15.6q-0.555-18.937-1.11-37.879c-3.41-15.668-7.47-68.715-1.12-84.671h-2.23c-3.06,2.138-11.36,1.167-14.49,0-1.8,15.434-7.2,47.172-14.5,57.932C992,649.511,970.62,655.242,955.2,661.98c-17.55,7.672-33.751,20.71-51.285,27.853-7.377,3-17.843,1.63-23.413,3.342,6.172,15.782,14.878,29.034,18.954,46.792h-2.23v-2.228C891.241,728.706,883.433,692.89,872.7,692.061ZM1022.1,484.84l1.11,10.027c-6.52,2.854-9.32,4.266-8.92,14.483-4,6.006-3.58,22.159-4.46,30.08a3.165,3.165,0,0,1,1.12,1.115,3.129,3.129,0,0,0,1.11-1.115c12.5-12.043,21.76-28.416,33.45-41.221,2.82-3.085,3.29-8.711,6.69-11.141,6.46-4.62,18.04-2.678,24.53-6.684,3.35-3.609,2.39-6.834,4.46-12.255,2.84-7.459,9.46-14.731,12.26-22.282,6.24-16.806,2.88-55.944-3.34-69.074-2.38-5.016-8.12-6.084-11.15-10.027-6.07-7.87-8.9-17.434-15.61-24.51-5.2-5.479-12.19-10.724-16.72-16.711-2.26-2.98-3.65-6.874-6.69-8.913-6.53-4.376-14.66-4.676-22.3-7.8-17.17-7.016-35.342-14.809-54.631-20.054H947.4c-12.36-.673-25.854-0.416-36.791,2.228-10.912,2.638-19.939-.508-31.218,2.228-23.049,5.594-54.509,19-69.123,33.423-31.094,30.678-35.351,80.473-23.413,130.349h1.115v-1.114c2.16-1.858,1.86-1.6,2.23-5.571,3.141-5.332,1.16-12.38,3.345-18.939,3.762-11.295,14.864-43.335,26.757-44.564,12.182,8.135,28.947,7.349,43.481,13.369,24.357,10.089,47.71,13.341,75.813,21.168,14.83,4.13,35.126,8.989,53.515,5.57q1.671,13.925,3.344,27.853c4.365,9.1,14.755,16.574,10.035,31.194h12.26C1019.95,485.117,1019.81,485.284,1022.1,484.84Zm-31.219-54.59c-29.1.61-52.861-5.172-74.7-12.255l-12.264-1.115c-11.408-3.461-23.957-6.707-35.676-11.14-10.431-3.946-44.447-17.023-53.515-15.6-1.869,7.352-7.307,11.654-10.034,17.826-6.039,13.663-11.207,30.269-12.264,47.906h2.23c8.387-4.634,41.255,9.507,41.251,21.167a23.969,23.969,0,0,1-7.8,1.114c-7.488-6.864-26.119-10.368-39.021-7.8V473.7c4.578,1.565,12.647,1.2,18.953,1.114,4.083,2.537,10.982,1.443,15.609,3.342,16.953,6.959,34.953,10.59,56.859,5.571h22.3c3.754-.816,15.089-2.622,18.953-2.228,18.706,1.906,38.124,7.776,55.745,10.027V490.41c-14.589-8.991-54.611-16.492-79.157-11.14-7.942,1.731-15.083,4.038-23.413,4.456-1.43-2.308-2.316-2.565-3.345-5.571H872.7c3.594-7.719,13.946-9.141,22.3-12.255,28.982-10.8,74.428-9.561,80.272,20.054a27.842,27.842,0,0,1,5.575,4.456c7.136-2.36,16.348-3.215,24.523-3.342-0.58-3.6,2.71-10,0-15.6q-2.775-2.228-5.57-4.456C993.715,457.846,991.933,444.053,990.881,430.25Zm-157.2,45.677v-4.456c-13.246-7.827-27.983-15.975-46.826-12.255v2.228c-1.071,1.579-1.088,3.647-1.115,6.685h1.115v1.114C804.425,461.972,818.227,474.338,833.681,475.927ZM917.3,461.444c-12.771,7.971-33.084,4.576-42.366,16.711h-1.115c-1.1,1.125,1.1,1.1,1.115,1.115,4.36,2.782,16.384.318,22.3-1.115,14.251-3.452,33.426-4.077,49.055,0,6,1.565,20.783,6.569,25.643,4.457,0.9-1.138.395-.305,1.115-2.228C960.177,465.378,945.064,461.341,917.3,461.444Zm63.549,50.134q-0.558-8.911-1.115-17.825c-13.518-.4-35.343-5.92-49.055-8.913l-70.239,2.228c-3.79.811-13.455,2.565-18.953,1.114-9.153-2.414-17.658-7.7-26.757-10.027-14.481-3.7-49.975-3.964-56.86,4.457-4.153,5.321,3.377,45.869,5.575,54.59,17.022,8.192,39.159,13.329,61.319,7.8,3.136-5.409,16.628-41.267,18.953-42.336h8.919c1.138,0.9.306,0.4,2.23,1.115,3.928,7.2,9.363,15.779,12.264,23.395,3.09,8.113,3.161,14.986,7.8,21.168,9.92,13.208,72.676,22.876,86.962,7.8,7.815-8.249,5.115-39.1,14.493-43.45C977.7,511.8,978.262,511.831,980.847,511.578ZM787.97,478.155c14.564,3.292,37.63.509,46.826,12.255,5,6.086.438,15.534-1.115,21.168-3.632,13.181-3.717,32.219-18.953,33.423-14.173,9.544-47.251-8.544-51.285-18.94q-0.558-7.8-1.115-15.6c-1.276-6.373-3.717-19.979,1.115-25.624C768.352,479.1,781.431,481.923,787.97,478.155Zm4.46,2.229c0.791,5.095,3.373,7.9,4.459,12.255,1.842,7.372-1.106,16.068-2.229,21.167q0.557,15.039,1.114,30.081c5.7,0.225,15.08,2.153,20.069-1.114,10.114-3.216,10.813-13.952,14.493-23.4h-1.115c-2.126,3.113-4.714,4.509-8.919,5.57,0.522-3.728.567-2.952,0-6.684-3.731-2.2-5.293-3.958-11.149-4.457v-3.342c11.878,0.145,17.7-4.971,25.643-8.913v-3.342h-1.115c-3.765,4.9-19.572,8.667-25.643,4.456-5.642-1.929-6.448-6.244-10.034-10.026a37.964,37.964,0,0,1,1.115-8.913,12.238,12.238,0,0,0,5.575-2.228h-1.115v-1.114H792.43ZM775.706,481.5c-3.484,2.609-7.957,2.522-10.034,6.684h-1.115V489.3H767.9c3.7-2.872,10.9-5.431,15.609-6.684V481.5h-7.8Zm11.149,1.114c-12.582,11.032-24.221-.08-23.412,26.738,2.075,3.2,2.131,12.28,2.229,16.711,3.572,2.77,5.324,8.742,8.919,11.141l18.954,5.571v-7.8c-4.235-6.906-.255-24.637,1.115-31.194,1.737-8.315-2.21-16.306-4.46-21.168h-3.345Zm10.034,67.959c0.8,17.288,11.371,51.616,17.839,65.732,2.983,6.511,8.233,13.552,10.034,18.939,5.855,17.514,11.53,40.623,25.642,49.02,6.155,3.662,33.1,8.415,44.6,5.571,12.891-3.189,22.289-10.8,32.332-16.712,5.656-3.331,10.616-4,16.723-6.684,8.083-3.552,16.45-9.806,24.528-13.369,11.63-5.131,24.635-9.08,31.217-18.94,6.23-9.325,11.57-44.69,14.49-57.933h3.35c14.72,9.325,23.5-10.468,27.87-16.711,11.67-16.657,44.09-45.408,33.45-71.3-3.85-2.488-4.49-4.167-11.15-4.456-4.01,2.895-10.57,2.639-14.5,5.57-2.39,1.792-2.64,5.315-4.45,7.8-7.59,10.4-17.2,20.445-25.65,30.08-4.52,5.157-4.89,14.37-13.38,15.6l-1.11-3.343c-3.15-5.464,3.94-31.934,3.34-37.879-7.51,3.044-15.179,7.323-22.294,10.027-3.6,1.369-12.189.631-14.494,3.342-4.1,4.822-1.511,12.744-3.344,20.054-3.461,13.8-8.354,25.607-21.183,30.081-26.618,9.281-74.148-6.785-82.5-23.4-6.3-12.521-5.773-36.229-23.413-36.765v1.114h-1.115c1.707,6.793-5.278,15.527-7.8,22.282-5.4,14.43-11.616,29.689-14.494,44.563-1.077,5.566,2.349,12.492,3.345,16.712,4.741,3.281,15.653,12.842,25.642,6.684,3.137-1.933,5.33-7.358,8.919-8.913,9.926-4.3,24.055,2.5,27.873-7.8,5.786-8.652-5.417-15.4-7.805-20.054h2.23V560.6c6.9,2.266,9.166,9.445,8.919,18.94-2.662,2.849-2.41,5.119-6.689,6.684-5.337,3.422-19.294,3.179-25.642,4.457-1.377,2.114-4.52,3.651-5.575,5.57-2.3,4.181-.959,9.649-3.345,13.369-1.9,2.966-3.441,1.818-4.459,6.685,3.607,2.115,4.857,3.235,11.149,3.342,5.043-4.819,6.175-5.541,8.919-13.369h1.115c-0.172,4.134-.826,7.294,0,8.913,7.428,6.175,28.1,6.791,37.906,11.141v1.114H902.8c-4.118,3.285-10.35,3.367-15.608,5.57C858.259,645.136,840.677,639,825.877,616.3c9.94,0.359,18.8-2.908,21.183-10.027,1.976-2.138,2.113-3.494,2.229-7.8h-1.115c-4.3,2.923-11.488.2-14.493-1.114-23.518-10.284-10.524-33.675-5.575-52.362h-1.115C821.783,551.611,805.838,550.632,796.889,550.571Zm4.46-65.731c-2.132,6.008.6,8.613,2.23,13.369h1.115C803.973,494.573,802.825,485.935,801.349,484.84Zm23.413,1.114-6.69-1.114v1.114c2.617,3.539,1.7,6.585,1.115,11.141a49.655,49.655,0,0,0-6.689,4.456h2.23c4.23,1.738,13.688-2.388,17.838-4.456v-1.114C829.139,493.785,825.679,490.785,824.762,485.954Zm65.778,1.114c23.752-.522,60.734-2.97,70.239,11.141,4.415,6.556,2.485,12.47,4.459,22.282,0.571,2.837,2.166,9.911,1.115,14.483-1.531,6.663-3.939,12.977-5.574,18.94-3.657,1.019-6.109,3.543-8.919,4.456-23.744,7.71-50.434-3.368-69.124-7.8-9.029-14.329-19.928-34.86-14.493-56.818,3.329-1.053,4.062-3.41,6.689-4.457C879.335,487.542,886.831,489.479,890.54,487.068Zm129.33,0c-7.54.66-31.736,2.219-36.793,5.571-1.274,1.882-1.189,5.454-1.115,8.912,1.273,1.883,1.188,5.455,1.115,8.913h2.229c4.112-3.081,9.4-3.345,14.494-5.57,6.9-3.014,14.5-7.725,21.18-11.141A20.561,20.561,0,0,1,1019.87,487.068ZM815.843,489.3c-2.221,1.49-7.255,1.23-11.149,1.114v2.229a20.817,20.817,0,0,1,3.344,5.57l5.575,1.114C815.49,496.572,818.686,493.616,815.843,489.3Zm71.353,0c-6.27,3.7-12.46,1.173-16.724,6.685-8.367,10.191,8.116,49.8,15.609,52.362,3.957,3.569,9.482,2.718,15.608,4.457,20.666,5.863,34.594,5.9,56.86,0,4.7-16.227,12.481-55.135-10.034-59.047-2.329-1.631-6.337-2.032-10.034-2.228v1.114h2.23c3.6,3.889,7.291,8.6,11.149,12.255-2.094,5.586-4.588,3.44-10.034,5.57-21.981,8.6-29.968-.417-47.941-5.57v2.228c6.262,4.176,8.459,8.031,17.838,10.027,0.677,6.347,3.055,10.021,4.46,15.6h-4.46c-9.223-8.589-19.063-13.032-21.183-28.966,4.717-5.757,6.229-9.832,13.379-13.37V489.3h-5.574C896.791,490.062,891.629,489.431,887.2,489.3Zm35.676,0c0.423,4.222,2.063,7.932,0,11.141-1.531,5.652-3.538,6.934-11.149,6.685-2.091-1.852-6.556-3.046-7.8-5.571-2.272-4.6,2.87-4.406-2.23-7.8-2.031,2.2-4.491,4.65-6.689,6.684v2.228c14.006,3.957,20.818,12.939,39.021,7.8,6.05-1.708,10.384-1.188,14.494-4.456h1.115v-1.114C939.528,497.717,939.68,492.163,922.872,489.3Zm-92.536,1.114c1.43,2.309,2.316,2.566,3.345,5.571H834.8C833.74,492.72,832.829,492.069,830.336,490.41Zm91.421,4.457c-5.7.472-10.281,1.064-15.608,0v5.57c3.96,2.51,5.442,4.2,12.264,4.457q0.556-1.671,1.115-3.343C921.367,499.557,921.474,498.753,921.757,494.867Zm-89.191,10.027c-3.911,3.665-10.318,5.611-15.609,7.8v1.114h1.115c2.532,2.757,3.856,3.86,5.575,7.8l2.23-1.114C828.212,516.648,834.086,508.494,832.566,504.894Zm64.664,8.912v3.343c5.489,4.364,6.9,10.858,15.608,12.255V528.29c-2.1-2.271-2.229-4.273-2.229-8.913A41.448,41.448,0,0,1,897.23,513.806Zm133.79,79.1v2.228c6.67,4.392,15.12,17.761,17.84,25.624q1.11,10.026,2.23,20.054c0.72,3.247,4.4,16.134,2.22,20.053-1.11.372-2.23,0.743-3.34,1.114-1.94,3.461-3.59,10.285-4.46,13.37-4.56,16.241-1.81,33.7-7.8,47.9-3.49,8.267-7.78,17.2-12.27,25.625-0.88,1.668-4.91,3.98-5.57,5.57-1.99,4.752,1.36,17.149,2.23,21.168,2.26,10.527-.39,16.965-1.12,25.624h1.12c5.64-6.723,17.22-8.2,22.3-15.6,5.19-7.56,5.91-28.624,16.72-30.081,10.21,10.6,37.64,23.244,54.63,26.738,6.54,1.346,13.83-2.805,17.84-4.456,6.58-2.71,16.14-2.513,18.95-8.913-4.24-3.367-5.67-7.8-8.92-12.255-4.75-6.508-13.13-11.335-17.84-17.825-10.93-15.073-20.39-36.1-27.87-53.477-4.67-10.86-4.13-25.865-10.03-35.651-5.87-9.722-15.79-14.791-22.3-23.395C1057.05,615.058,1045.61,597.484,1031.02,592.907Zm1.11,6.684q0.555,18.381,1.12,36.765c3.07,2.591,4.32,7.956,7.8,10.027,3.5,2.081,6.02,2.647,8.92,4.457V640.813c-2.33-3.9-.82-9.309-2.23-14.483C1045.27,617.284,1038.83,604.721,1032.13,599.591ZM838.14,616.3a12.914,12.914,0,0,1-3.344,2.228v1.114c6.734,1.121,11.877,5.1,17.838,6.685,5.332,1.416,32.952-.518,35.677-2.229-5.6-.718-9.8-3.3-14.494-4.456-10.03-2.468-15.906,4.669-24.528,2.228C844.513,620.521,844.512,617.133,838.14,616.3Zm-3.344,5.57V624.1a84.517,84.517,0,0,1,13.378,11.141c7.47,0.626,17.074,4.63,25.643,2.228,7.09-1.987,13.272-6.951,21.183-8.912v-1.114l-42.366,1.114C846.86,627.139,841.115,623.387,834.8,621.873Zm198.454,20.054c0.08,12.038.8,28.445,3.34,40.107,1.99,9.118-2.04,20.19,2.23,26.738,0.36-19.319,6.1-39.993,12.27-54.59C1044.8,650.579,1039.04,645.793,1033.25,641.927Z" transform="translate(-633 -285)"/>
</svg>
