<svg xmlns="http://www.w3.org/2000/svg" width="608" height="660" viewBox="0 0 608 660">
  <metadata><?xpacket begin="﻿" id="W5M0MpCehiHzreSzNTczkc9d"?>
<x:xmpmeta xmlns:x="adobe:ns:meta/" x:xmptk="Adobe XMP Core 5.6-c142 79.160924, 2017/07/13-01:06:39        ">
   <rdf:RDF xmlns:rdf="http://www.w3.org/1999/02/22-rdf-syntax-ns#">
      <rdf:Description rdf:about=""/>
   </rdf:RDF>
</x:xmpmeta>
                                                                                                    
                                                                                                    
                                                                                                    
                                                                                                    
                                                                                                    
                                                                                                    
                                                                                                    
                                                                                                    
                                                                                                    
                                                                                                    
                                                                                                    
                                                                                                    
                                                                                                    
                                                                                                    
                                                                                                    
                                                                                                    
                                                                                                    
                                                                                                    
                                                                                                    
                                                                                                    
                           
<?xpacket end="w"?></metadata>
<defs>
    <style>
      .cls-1 {
        fill: #fff;
        fill-rule: evenodd;
      }
    </style>
  </defs>
  <path class="cls-1" d="M1135.33,415.728h7.04c18.35,30.3-10.88,85.111-32.37,97.152-4.86,2.722-15.49.226-18.3,1.408-8.45,9.7-8.92,29.717-14.07,42.24-7.43,18.068-17.48,39.579-22.52,59.136q2.115,21.119,4.22,42.24c6.02,3.761,30.24,19.514,32.37,25.344h-1.4c-5.61-7.9-15.88-9.921-23.93-15.488-4.54-3.138-6.31-9.913-11.26-12.672V657.9c-10.07,12.862,2.74,37.636,7.04,50.688,16.5,50.129,14.23,117.321,26.74,173.184h-2.82q-2.8-19.006-5.63-38.016V822.64c-3.42-15.22-2.76-47.408-8.44-60.544-2.74-6.336-8.02-14.914-11.26-21.12-4.38-8.39-6.92-21.107-14.07-26.752a3.987,3.987,0,0,0-1.41-1.408v18.3c-3.71,5.586-3.44,16.823-4.22,26.752-0.42,5.248,5.93,30.6,8.44,40.832v26.752q0.7,25.341,1.41,50.688h-1.41v-2.816c-5.37-8.745-1.4-34.39-1.41-46.464,0-33.363-10.31-55.676-8.44-83.072-1.41-.469-2.82-0.939-4.22-1.408-9.65-9.234-25.18-3.225-36.6,0V745.2c13.165,13.769,4.5,68.37,4.225,91.52-0.12,9.594,2.83,28.535-1.41,35.2,0.26-43.336,5.09-93.442-4.223-128.128H996c-2.366,1.892-4.424,2.3-8.444,2.816-3.95-6.371-11.471-8.329-15.482-14.08-3.822-5.48-6.529-11.647-9.852-16.9h-1.407v1.408c-9.907,4.626-26.843,15.369-28.148,28.16,6.734,10.329,2.082,21.585,5.629,36.608q4.222,15.486,8.445,30.976c3.234,13.8.834,24.489,4.222,38.016,1.967,7.853,5.2,12.283,5.63,22.528h-1.408v-2.816c-7.465-12.061-4.542-29.225-8.444-45.056-3.261-13.228-6.71-28.514-9.852-40.832V764.912c-8.653-34.881-17.164-75.327-29.556-108.416-6.365-17-11.1-35.855-18.3-53.5-1.882-4.614-7.683-13.113-5.63-21.12,1.2-4.686,4.59-6.907,5.63-12.672-9.261,1.444-8.545,6.925-15.481,9.856v-1.408h1.407c3.062-6.644,5.4-9.865,15.481-9.856V569.2c3.881,0.688,1.662-.786,2.815-2.816,8.926-10,10.069-47.577,7.037-61.952-5.692-.66-6.665-0.984-8.444-5.632-4.12-4.894-1.826-15.72-4.222-22.528-6.6-18.741-20.343-38.738-15.482-64.768l4.222-1.408c4.742-3.453,5.625-1.458,11.26,0v-4.224c-8.711-10.96-10.86-65.69-5.63-83.072,13.462-44.74,45.91-79.847,92.889-91.52,9.82-2.44,26.851-7.482,40.811-4.224,44.79,10.449,102.21,30.471,121.04,64.768,10.38,18.915,4.61,53.27,0,71.808Q1136.035,389.678,1135.33,415.728ZM1005.85,228.464c-4.99,2.982-14.183-.222-21.109,1.408-13.311,3.133-28.939,5.947-39.408,12.672-35.381,22.727-77.191,72.794-61.926,140.8,3.017,13.437,6.916,25.677,9.852,38.016h1.408V398.832c3.335-5.073.882-10.759,2.814-18.3,4.7-18.34,11.178-40.1,25.334-49.28v2.816c-17.51,11.43-19.764,38.409-25.334,61.952-2.471,10.447,2.5,25.763,1.408,33.792-4.759,34.967,1.438,89.846,15.481,111.232,4.475,6.815,12.141,12.981,16.889,19.712,10.66,15.113,21.055,30.948,40.815,36.608,10.832,3.1,24.377-1.351,30.966-4.224,22.64-9.88,59.91-30.291,73.18-49.28,6.05-8.655,7.08-30.673,19.71-32.384,3.72,2.39,7.46.536,12.66,0l15.48-14.08c9.02-12.52,18.69-30.107,22.52-46.464,2.87-12.24.44-29.235-7.03-32.384-5.26-3.289-18.62,3.6-22.52,7.04-5.95,5.888-10.33,17.678-12.67,26.752h-1.41c-1.27-13.462,2.37-35.838-1.4-50.688-6.02-23.683-21.79-47.488-32.37-67.584H1072v2.816c11.55,8.416,12.1,23.771,18.3,38.016,2.5,5.753,8.98,12.125,11.26,18.3,4.43,12.025,2.76,35.441,2.81,50.688h1.41v-2.816c4.3-4.707,4.83-14.41,9.85-18.3,6.08-4.715,14.55-2.676,18.3-9.856-4.07-6.594-.21-26.331,1.4-33.792v-16.9c3.44-14.7,8.66-32.952,4.23-52.1C1129.09,264.959,1059.77,231.013,1005.85,228.464Zm-40.813,84.48c37.083-.868,87.563-0.129,102.743,19.712a4.053,4.053,0,0,1,1.41,1.408h-2.82c-11.6-15.077-76.271-26.86-106.963-18.3-13.312,3.711-25.055,11.616-36.592,15.488V329.84h1.407C933.91,317.818,951.741,321.733,965.037,312.944ZM920,383.344c22.91-.857,46.183,2.593,47.852,22.528,4.058,4.551,3.115,16.278,1.407,22.528-2.766,10.122-2.973,17.713-7.037,26.752-4.421,9.835-13.091,12.55-14.074,26.752,8.419,5.711,11.807,14.663,25.333,15.488,6.291,0.986,7.5-5.17,12.667-8.448,10.043-6.373,19.812.2,19.7-16.9-15.949-14.91-29.157-70.131,0-80.256,18.73-15.546,65.39-5.9,68.96,15.488-12.68,2.015-27.02-6.97-40.81-9.856l-35.185,2.816c-4.549,7.794-14.882,30.4-5.63,42.24v-2.816c9.725-13.4,17.285-42.2,47.855-29.568,5.19,2.145,9.62,6.854,14.07,9.856v2.816h-1.41c-4.56-7.1-13.05-11.964-23.92-12.672V411.5c6.24,5.47-.51,11.657-4.22,15.488h28.14c1.9-3.246,1.72-2.566,2.82-2.816,0.94,0.469,1.88.939,2.81,1.408v1.408h-2.81c-10.48,7.1-34.85,1.58-46.45,0V428.4a3.971,3.971,0,0,1,1.41,1.408c3.49,1.469,22.48,7.547,23.93,9.856-2.85,2.446-2.63,3.021-2.82,8.448,2.35,1.419,8.61,6.246,7.04,7.04-1.51,1.058-1.33.847-4.22,1.408-11.81-8.12-24.78-8.768-29.56-23.936h1.41c6.32,10.828,14.42,16.138,26.74,21.12v-2.816c-4.29-3.484-2.65-8.773-4.22-11.264-6.99-5.262-18.3-8.453-25.34-12.672,0.45,4,1.49,2.914,0,5.632-2.27-3.715-1.05-3.433-4.22-2.816-16.811,17.855,8.15,32.222,12.67,45.056h-1.41a22.037,22.037,0,0,0-5.63-7.04v1.408c3.24,3.963,2.48,7.5,1.41,12.672-7.482,4.891-12.129,4.317-19.7,8.448l-7.037,8.448c-17.422,9.261-30.225-14.487-36.593-22.528-6.535,9.446-26.585,19.548-19.7,40.832,1.783,5.514,6.589,10.309,8.445,16.9h-1.408v-1.408c-40.37-42.378,50.218-63.076,30.963-108.416-1.132,1.438-.5.386-1.407,2.816-6.768,8.847-7.813,18.56-22.519,19.712V445.3c6.147-4.812,4.822-11.46,12.667-15.488v2.816c-5.615,1.949-5.876,5.192-7.037,11.264h1.407V442.48c8.513-4.265,10.639-10.316,14.074-19.712H958a22.416,22.416,0,0,1-7.037,7.04c0.45-4,1.486-2.914,0-5.632-9.932,6.759-30.269-1.425-36.593-4.224l1.408-4.224c2.13-1.987,3.108-3.892,5.629-5.632,17.348-14.547,41.611,5.351,45.037,19.712h1.408c1.5-11.311-.343-18.993-2.815-28.16-10.74-.812-19.022-4.934-28.148-7.04-12.718-2.935-20.134,3.7-30.963,4.224-1.578-2.944-2.019-2.579-2.815-7.04C907.79,389.216,915.426,386.771,920,383.344Zm2.815,1.408-15.482,5.632a19.96,19.96,0,0,0-1.407,5.632,19.905,19.905,0,0,0,5.63,1.408c12.133-10.013,40.429-1.785,52.074,2.816v-2.816C951.715,389.624,944.053,384.685,922.815,384.752Zm106.965,1.408c-8.48,5.134-20.76,2.408-26.74,9.856a3.971,3.971,0,0,0-1.41,1.408h14.07c14.11-9.275,44.09,7.45,56.3,8.448v-2.816h-1.41C1066.25,391.046,1046.9,385.859,1029.78,386.16Zm-92.891,21.12c0.759,10.016.1,10.193-4.222,16.9h16.889c1.912-1.776,2.488-1.922,5.629-2.816q0.7-2.112,1.408-4.224A84.63,84.63,0,0,0,936.889,407.28Zm-8.445,1.408c-1.083,4.361-2.81,5.407-1.407,8.448,1.722,4.364.528,3.184,5.63,4.224,1.833-3.4,2.535-3.989,2.814-9.856C932.538,409.925,932.9,409.484,928.444,408.688ZM877.778,410.1c-2.2,2.533-2.767,1.8-4.222,5.632-7.8,13.933,13.839,51.147,16.888,61.952,4.065,14.4-2.792,19.874,9.852,25.344v-7.04c-4.981-8.144-5.573-41.153-5.629-53.5l1.407-11.264c-1.29-5.946-5.923-12.182-8.444-18.3C884.145,411.345,883.08,410.535,877.778,410.1ZM1022.74,411.5c-0.83,4.856-3.28,8.388,1.41,11.264,2.17,1,.19.182,4.22,0l2.82-8.448a8.558,8.558,0,0,1-2.82-2.816h-5.63Zm-11.26,2.816c-1.57,4.766-3.11,4.232-4.22,9.856l8.44,1.408v-1.408C1012.3,419.949,1015.01,416.9,1011.48,414.32Zm-94.3,2.816c2.336,1.571,1.5,2.492,2.815,0h-2.815Zm97.115,59.136c12.78,8.818,24.46,39.4,16.89,57.728h-2.82v-1.408c2.74-2.222,3.93-4.944,2.82-7.04-2.92-2.343-5.85-2.689-11.26-2.816-7.58,11.424-41.607,24.823-60.523,16.9-10.835-4.541-22.009-20.078-28.148-29.568a22.1,22.1,0,0,1,7.037-1.408c9.766-6.333,24.417,2.475,30.963,4.224l30.961-1.408c11.57,2.813,21.02,9.252,32.37,11.264A19.778,19.778,0,0,0,1034,517.1q-2.115-6.336-4.22-12.672C1025.18,495.109,1017.71,486.639,1014.3,476.272Zm-71.781,32.384c2.7,1.889,15.735,7.633,18.3,8.448,6.3,2,47.145-1.03,47.855-1.408-8.03-.909-16.456-4.964-26.744-2.816-2.441.51-9.453,2.642-14.074,1.408C959.973,512.184,954.237,508.862,942.519,508.656Zm-7.038,1.408v2.816h1.408C936,510.41,936.617,511.512,935.481,510.064Zm2.815,1.408c2.337,4.053,6.51,8.568,7.037,1.408A22.094,22.094,0,0,0,938.3,511.472Zm8.445,1.408c0.805,3.316,1.605,4.424,2.815,7.04,2.468-.888,1.367-0.272,2.814-1.408,1.132-1.438.5-.386,1.408-2.816A36.305,36.305,0,0,0,946.741,512.88Zm8.444,4.224a17.855,17.855,0,0,0,1.408,5.632h2.814v-4.224Zm18.3,2.816v5.632h11.26v-7.04h-1.408C981.153,519.989,977.584,519.963,973.481,519.92Zm12.667-1.408v8.448a25.761,25.761,0,0,1-8.444,1.408c-6.018-3.564-12.977.777-21.111-2.816-2.9-1.282-1.9-3.231-7.037-4.224v1.408h1.407v1.408c13.494,6.344,30.367,8.094,47.852,4.224V526.96c-4.66.672-8.851,2.479-12.667,0,3.564-.1,5.231-0.17,7.037-1.408,1.235-1.823,1.259-3.473,1.408-7.04h-8.445Zm11.259,0v7.04h5.633v-7.04h-5.633Zm8.443,0v5.632c5.3-.32,6.42-1.231,9.85-2.816V519.92Q1010.78,519.217,1005.85,518.512Zm-63.331,1.408c4.444,8.767,11.661,11.943,18.3,18.3,25.6,2.31,37.8-4.282,54.885-12.672v-1.408h-2.81c-3.47,3.178-7.57,2.242-12.67,4.224C975.053,538.162,960.811,531.845,942.519,519.92Zm19.7,0v4.224h2.815c1.66,1.13,2.366,1.088,5.63,1.408v-1.408h1.407V519.92h-9.852Zm-57.7,5.632q-2.815,16.191-5.63,32.384c6.555,41.816,47.847,56.59,68.963,84.48,8.54,11.28,31.7,39.1,49.258,39.424,10.04-10.413,25.57-17.541,32.37-30.976,4.51-8.905-.11-21.576,1.41-30.976,0.83-5.137,6.45-13.321,8.44-18.3,8.29-20.72,12.92-40.827,21.11-60.544h-1.4c-11.65,22.9-58.57,48.52-84.447,57.728-13.08,4.654-29.41-.655-38-5.632-15.491-8.975-24.66-27.969-35.186-42.24l-7.037-5.632C910.112,538.924,909.544,530.916,904.519,525.552Zm-7.038,36.608c-2.386,7.785-9.091,10.391-11.259,16.9-4.446,13.339,5.491,25.247,8.445,32.384,9.929,23.994,15.388,49.991,23.926,73.216,5.764,15.68,4.109,41.378,14.074,53.5,12.093-17.771,38.78-31.32,54.889-46.464,4.971-4.674,13.3-5.1,15.484-12.672-10.13-3.653-29.921-26.365-36.6-35.2l-54.888-52.1C905.481,582.963,903.865,571.044,897.481,562.16Zm-26.74,16.9h2.815v1.408h-1.408c-15.923,23.381-42.3,19.918-42.222,63.36,8.5,7.551,15.78,17.671,25.333,23.936v1.408h-1.407v1.408c-9.938-3.36-22.442-1.439-33.778-1.408v2.816c14.861,12.556,18.405,41.579,25.333,61.952,1.832,5.386,6.548,11.931,8.445,16.9,9.56,25.027,13.356,47.066,22.518,71.808,5.337,14.413,12.555,30.233,14.074,47.872h-1.407c-3.4-31.437-19.582-62.48-29.556-88.7-11.352-29.851-15.931-58.707-28.148-87.3l-15.481-28.16h1.407c6.076,4.051,25.847,1.418,32.371,0v-1.408c-6.764-3.651-13.854-11.642-19.7-16.9h-1.407v-21.12c2.9-3.694,4.807-10.047,7.037-14.08h-1.408c-6.475,4.774-15.584,3.843-23.926,7.04-24.777,9.5-46.885,26.959-74.592,33.792-17.11,4.219-39.155-.177-53.482,2.816V657.9c13.179,2.34,14.951,17.226,21.111,26.752,25.372,39.236,21.229,105.842,21.111,167.552h-2.814v-5.632c4.915-7.558,3.26-41.918,2.814-54.912-1.351-39.388-6.4-80.839-22.518-105.6-5.394-8.285-7.864-21.033-16.889-25.344-5.007-3.785-17.71-3.711-22.519,0-12.261,4.23-30.216,23.693-35.185,35.2q-3.518,12.671-7.037,25.344c-13.68,33.38-26.8,67.959-40.815,101.376H578v-2.816c6.423-8.242,6.843-20.683,11.259-30.976,1.831-4.266,6.614-8.406,8.445-12.672,16.717-38.962,22.281-88.421,53.481-112.64,21.205-16.46,58.5-4.818,88.667-12.672,19.259-5.015,36.344-17.759,53.481-25.344,9.253-4.1,19.013-8.4,28.148-11.264l11.26-1.408c5.468-3.023,9.612-11.131,14.074-15.488C854.232,590.116,864.817,587.945,870.741,579.056ZM1053.7,638.192c-1.19,19.691-19.81,36.632-33.77,43.648v2.816c20.76,6.012,32.91,34.155,42.22,52.1,2.97,5.736,3.81,12.884,8.44,16.9-4.33-13.392-2.7-26.363-7.03-39.424-3.57-10.728-11.13-22.813-14.08-32.384-5.29-17.192,6.81-28.131,7.04-43.648h-2.82Zm-49.26,45.056c-2.56,2.447-6.478,4.042-9.847,5.632V691.7h7.037c4.44,3.218,24.24,2.688,26.74-1.408C1020.91,687.967,1014.65,684.5,1004.44,683.248Zm94.3,7.04c-0.04,7.879-1.42,14.513-2.81,21.12h-2.82V710c3.43-4.4,4.05-15.333,4.22-22.528-3.77-1.255-3.64-1.448-5.63-4.224h2.82c9.29,11.126,28.06,13.188,36.59,25.344h-2.81C1121.62,701.5,1110.05,692.11,1098.74,690.288ZM988.963,693.1c-5.535,8.353-16.6,15.981-25.333,21.12v1.408h1.407c5.716,10.478,13.943,26.572,28.148,28.16,5.8-4.751,21.205-11.887,33.775-8.448,4.8,1.313,8.42,5.8,12.67,4.224,4.56-6.014,2.69-23.992,4.22-32.384-3.51-2.418-9.31-11.67-11.26-12.672H998.815C996.634,693.035,993.065,693.061,988.963,693.1Zm142.147,15.488c7.72,2.467,45.49,26.566,49.26,32.384h-2.81C1167.01,726.12,1141.4,723.823,1131.11,708.592Zm-35.18,4.224c6.66,0.809,32.03,8.973,36.59,12.672,1.48,2.181,1.45,5.752,1.41,9.856-4.15,6.9-.8,19.384-2.82,28.16-5.41,23.532-1.88,56.513-7.04,80.256-2.77,12.791,3.44,32.276-2.81,42.24-0.26-24.688-.39-47.675,4.22-68.992V791.664c4.58-20.985,2.82-43.481,7.04-64.768h-1.41v-1.408C1120.26,724.993,1102.21,719.047,1095.93,712.816Zm84.44,28.16c4.38,1.389,4.08,1.421,5.63,5.632C1184.57,747.463,1180.94,741.8,1180.37,740.976Z" transform="translate(-578 -226)"/>
</svg>
